HIERARCHY
ROOT Hips
{
 OFFSET 0.000000 0.000000 0.000000
 CHANNELS 6 Xposition Yposition Zposition Yrotation Xrotation Zrotation
 JOINT Chest
 {
  OFFSET 0.000000 9.588913 -0.003946
  CHANNELS 3 Yrotation Xrotation Zrotation
  JOINT Chest2
  {
   OFFSET 0.000000 9.541882 0.008053
   CHANNELS 3 Yrotation Xrotation Zrotation
   JOINT Chest3
   {
    OFFSET 0.000000 9.501360 0.000000
    CHANNELS 3 Yrotation Xrotation Zrotation
    JOINT Chest4
    {
     OFFSET 0.000000 9.491660 0.000000
     CHANNELS 3 Yrotation Xrotation Zrotation
     JOINT Neck
     {
      OFFSET 0.000000 14.331917 0.000000
      CHANNELS 3 Yrotation Xrotation Zrotation
      JOINT Head
      {
       OFFSET 0.000000 8.884799 0.017034
       CHANNELS 3 Yrotation Xrotation Zrotation
       End Site
       {
        OFFSET 0.000000 16.896195 0.008993
       }
      }
     }
     JOINT RightCollar
     {
      OFFSET -2.923010 9.499495 0.000000
      CHANNELS 3 Yrotation Xrotation Zrotation
      JOINT RightShoulder
      {
       OFFSET -13.795216 0.000000 0.000000
       CHANNELS 3 Yrotation Xrotation Zrotation
       JOINT RightElbow
       {
        OFFSET -30.272209 0.000000 0.000000
        CHANNELS 3 Yrotation Xrotation Zrotation
        JOINT RightWrist
        {
         OFFSET -24.478199 0.000000 0.000000
         CHANNELS 3 Yrotation Xrotation Zrotation
         End Site
         {
          OFFSET -18.090752 0.000000 0.000000
         }
        }
       }
      }
     }
     JOINT LeftCollar
     {
      OFFSET 2.923010 9.499495 0.000000
      CHANNELS 3 Yrotation Xrotation Zrotation
      JOINT LeftShoulder
      {
       OFFSET 13.795216 0.000000 0.000000
       CHANNELS 3 Yrotation Xrotation Zrotation
       JOINT LeftElbow
       {
        OFFSET 30.272209 0.000000 0.000000
        CHANNELS 3 Yrotation Xrotation Zrotation
        JOINT LeftWrist
        {
         OFFSET 24.478199 0.000000 0.000000
         CHANNELS 3 Yrotation Xrotation Zrotation
         End Site
         {
          OFFSET 18.090752 0.000000 0.000000
         }
        }
       }
      }
     }
    }
   }
  }
 }
 JOINT RightHip
 {
  OFFSET -7.826875 0.019532 0.001973
  CHANNELS 3 Yrotation Xrotation Zrotation
  JOINT RightKnee
  {
   OFFSET 0.000000 -40.546152 -0.001885
   CHANNELS 3 Yrotation Xrotation Zrotation
   JOINT RightAnkle
   {
    OFFSET 0.000000 -39.417092 -0.003189
    CHANNELS 3 Yrotation Xrotation Zrotation
    JOINT RightToe
    {
     OFFSET 0.000000 -7.579396 17.243563
     CHANNELS 3 Yrotation Xrotation Zrotation
     End Site
     {
      OFFSET 0.000000 -1.500329 6.694466
     }
    }
   }
  }
 }
 JOINT LeftHip
 {
  OFFSET 7.826875 0.019532 0.001973
  CHANNELS 3 Yrotation Xrotation Zrotation
  JOINT LeftKnee
  {
   OFFSET 0.000000 -40.546152 -0.001885
   CHANNELS 3 Yrotation Xrotation Zrotation
   JOINT LeftAnkle
   {
    OFFSET 0.000000 -39.417092 -0.003189
    CHANNELS 3 Yrotation Xrotation Zrotation
    JOINT LeftToe
    {
     OFFSET 0.000000 -7.579396 17.243563
     CHANNELS 3 Yrotation Xrotation Zrotation
     End Site
     {
      OFFSET 0.000000 -1.500329 6.694466
     }
    }
   }
  }
 }
}
MOTION
Frames: 5
Frame Time: 0.008333
0.000000 87.345680 0.000000 0.000000 -5.767889 0.000000 0.000000 11.653876 0.000000 0.000000 -5.885988 0.000000 0.000000 -0.000000 0.000000 0.000000 -0.000000 0.000000 0.000000 12.528808 0.000000 0.000000 0.711711 0.000000 0.000000 -0.000000 0.000000 0.000000 -0.000000 0.000000 2.309063 -0.000000 0.000000 -2.309063 -0.000000 -0.000000 0.000000 -0.000000 0.000000 0.000000 0.000000 0.000000 -2.309063 0.000000 0.000000 2.309063 -0.000000 0.000000 0.000000 8.520374 0.000000 0.000000 1.905768 0.000000 -0.000000 -4.658254 0.000000 0.000000 -0.000000 0.000000 0.000000 8.520374 0.000000 0.000000 1.905768 0.000000 -0.000000 -4.658254 0.000000 0.000000 -0.000000 0.000000
-22.010624 88.063882 -1.344331 -143.341151 -9.121195 -0.641159 3.449594 3.497638 0.587444 1.954693 2.000773 0.341190 2.445599 2.499053 0.437211 1.954693 2.000773 0.341190 -4.455081 25.151028 2.475058 -5.453116 1.791174 3.733671 1.204221 4.100586 -2.868266 -6.954946 -3.576173 89.792861 4.365718 -4.694511 4.258394 0.771100 -5.725761 2.757254 -5.418207 3.228178 -2.383866 3.142875 -3.714635 -87.457198 -0.009826 -3.258842 -1.236195 -3.731993 1.502847 3.090848 -7.057280 13.813481 -9.666098 -0.674679 1.397559 -1.027845 1.657748 -6.037429 7.088823 0.011243 -0.092090 0.015075 21.650793 13.945256 13.116764 12.976188 -2.978495 -0.469198 -0.179822 -1.875138 -10.065786 0.023335 0.084085 0.018372
-22.022255 88.063643 -1.345438 -143.342083 -9.141354 -0.638873 3.448132 3.498581 0.584557 1.954208 2.000875 0.340111 2.444987 2.499187 0.435861 1.954208 2.000875 0.340111 -4.450176 25.154819 2.474894 -5.447683 1.795513 3.732354 1.212351 4.097913 -2.877051 -6.961376 -3.568789 89.803787 4.359762 -4.691348 4.263828 0.765940 -5.724795 2.751435 -5.437466 3.228047 -2.375781 3.152424 -3.709073 -87.459772 -0.004893 -3.257229 -1.237824 -3.727863 1.503245 3.089441 -7.066178 13.826902 -9.678922 -0.664498 1.415945 -1.029345 1.653855 -6.046085 7.096208 0.010616 -0.093037 0.012975 21.648285 13.974451 13.118214 12.977538 -2.979985 -0.471868 -0.177630 -1.878205 -10.063204 0.022581 0.082741 0.017876
-22.035239 88.063237 -1.345929 -143.348714 -9.160251 -0.635397 3.447768 3.499340 0.581613 1.954316 2.001139 0.339143 2.445117 2.499522 0.434653 1.954316 2.001139 0.339143 -4.444964 25.156977 2.473274 -5.441531 1.797725 3.729344 1.219811 4.093736 -2.887278 -6.964500 -3.561257 89.815128 4.352991 -4.687980 4.268180 0.762089 -5.724515 2.750231 -5.453726 3.227416 -2.368844 3.160406 -3.703454 -87.462505 0.000826 -3.259051 -1.238983 -3.727270 1.499571 3.090315 -7.067639 13.839337 -9.693236 -0.656916 1.433397 -1.029862 1.651663 -6.054801 7.104674 0.010073 -0.093332 0.010970 21.651102 14.004565 13.118006 12.981546 -2.983295 -0.474760 -0.179092 -1.881265 -10.059074 0.021469 0.081182 0.016572
-22.049314 88.062712 -1.345915 -143.354702 -9.178621 -0.631444 3.448275 3.499933 0.578794 1.954813 2.001422 0.338324 2.445734 2.499880 0.433633 1.954813 2.001422 0.338324 -4.440050 25.158208 2.470677 -5.435462 1.798754 3.725320 1.221702 4.086976 -2.899344 -6.964491 -3.551208 89.827025 4.346142 -4.683158 4.271653 0.757453 -5.723732 2.750979 -5.469500 3.226368 -2.361056 3.163999 -3.695801 -87.465498 0.006689 -3.262356 -1.240388 -3.731477 1.493193 3.091674 -7.070816 13.851791 -9.708913 -0.650148 1.449621 -1.031310 1.651982 -6.063560 7.114018 0.010128 -0.093581 0.009801 21.653843 14.034500 13.115627 12.982868 -2.986528 -0.476415 -0.177743 -1.885321 -10.055061 0.020060 0.080322 0.015775
